<?xml version="1.0" encoding="utf-8"?>
<!-- Generator: Adobe Illustrator 17.1.0, SVG Export Plug-In . SVG Version: 6.00 Build 0)  -->
<!DOCTYPE svg PUBLIC "-//W3C//DTD SVG 1.1//EN" "http://www.w3.org/Graphics/SVG/1.1/DTD/svg11.dtd">
<svg version="1.1" id="Layer_1" xmlns="http://www.w3.org/2000/svg" xmlns:xlink="http://www.w3.org/1999/xlink" x="0px" y="0px"
	 viewBox="-302 -104 512 512" enable-background="new -302 -104 512 512" xml:space="preserve">
<path d="M189.2,40.9c3.2,3.2,4.8,6.9,4.8,11.1c0,4.2-1.6,7.9-4.8,11.1L-34.9,287.2c-3.2,3.2-6.9,4.8-11.1,4.8
	c-4.2,0-7.9-1.6-11.1-4.8L-281.2,63c-3.2-3.2-4.8-6.9-4.8-11.1c0-4.2,1.6-7.9,4.8-11.1l24-24c3.2-3.2,6.9-4.8,11.1-4.8
	c4.2,0,7.9,1.6,11.1,4.8l189,189l189-189c3.2-3.2,6.9-4.8,11.1-4.8c4.2,0,7.9,1.6,11.1,4.8L189.2,40.9z"/>
</svg>
